<svg width="329" height="285" viewBox="0 0 329 285" fill="none" xmlns="http://www.w3.org/2000/svg">
<rect x="1" y="1" width="327" height="283" rx="1" fill="white"/>
<rect x="1" y="1" width="327" height="283" rx="1" stroke="#1B1B1B" stroke-width="2"/>
<path d="M172 133H158C157.204 133 156.441 133.316 155.879 133.879C155.316 134.441 155 135.204 155 136V150C155 150.796 155.316 151.559 155.879 152.121C156.441 152.684 157.204 153 158 153H172C172.164 152.998 172.328 152.981 172.49 152.95L172.79 152.88H172.86H172.91L173.28 152.74L173.41 152.67C173.51 152.61 173.62 152.56 173.72 152.49C173.854 152.392 173.98 152.285 174.1 152.17L174.17 152.08C174.268 151.981 174.358 151.874 174.44 151.76L174.53 151.63C174.6 151.519 174.66 151.402 174.71 151.28C174.737 151.232 174.761 151.182 174.78 151.13C174.83 151.01 174.86 150.88 174.9 150.75V150.6C174.957 150.405 174.99 150.203 175 150V136C175 135.204 174.684 134.441 174.121 133.879C173.559 133.316 172.796 133 172 133ZM158 151C157.735 151 157.48 150.895 157.293 150.707C157.105 150.52 157 150.265 157 150V145.69L160.29 142.39C160.383 142.296 160.494 142.222 160.615 142.171C160.737 142.12 160.868 142.094 161 142.094C161.132 142.094 161.263 142.12 161.385 142.171C161.506 142.222 161.617 142.296 161.71 142.39L170.31 151H158ZM173 150C172.999 150.123 172.975 150.245 172.93 150.36C172.907 150.409 172.88 150.456 172.85 150.5C172.823 150.542 172.793 150.582 172.76 150.62L167.41 145.27L168.29 144.39C168.383 144.296 168.494 144.222 168.615 144.171C168.737 144.12 168.868 144.094 169 144.094C169.132 144.094 169.263 144.12 169.385 144.171C169.506 144.222 169.617 144.296 169.71 144.39L173 147.69V150ZM173 144.86L171.12 143C170.548 142.457 169.789 142.154 169 142.154C168.211 142.154 167.452 142.457 166.88 143L166 143.88L163.12 141C162.548 140.457 161.789 140.154 161 140.154C160.211 140.154 159.452 140.457 158.88 141L157 142.86V136C157 135.735 157.105 135.48 157.293 135.293C157.48 135.105 157.735 135 158 135H172C172.265 135 172.52 135.105 172.707 135.293C172.895 135.48 173 135.735 173 136V144.86ZM166.5 137C166.203 137 165.913 137.088 165.667 137.253C165.42 137.418 165.228 137.652 165.114 137.926C165.001 138.2 164.971 138.502 165.029 138.793C165.087 139.084 165.23 139.351 165.439 139.561C165.649 139.77 165.916 139.913 166.207 139.971C166.498 140.029 166.8 139.999 167.074 139.886C167.348 139.772 167.582 139.58 167.747 139.333C167.912 139.087 168 138.797 168 138.5C168 138.102 167.842 137.721 167.561 137.439C167.279 137.158 166.898 137 166.5 137Z" fill="#1B1B1B"/>
</svg>
